<svg id="Layer_1" data-name="Layer 1" xmlns="http://www.w3.org/2000/svg" viewBox="0 0 467.78 815.31"><defs><style>.cls-1{fill:#fff;}.cls-1,.cls-2{fill-opacity:0;}.cls-1,.cls-3{fill-rule:evenodd;}.cls-3,.cls-4{fill:none;stroke-linecap:square;stroke-linejoin:bevel;stroke-width:2px;}.cls-3{stroke:#000;}.cls-4{stroke:#323232;}</style></defs><path class="cls-1" d="M-384.08-14.41H807.22V828.26H-384.08V-14.41"/><rect class="cls-2" x="-209.49" y="-13.93" width="899.54" height="841.71"/><path class="cls-3" d="M414.67,82.12l-.06.31-.35,4.15-1.1,32.92,1.22,6.33h0L386.78,196.5l-24.19,86.12.27,74.23L331.21,482.92l22.43,116-1.08.24-.92,0-.73-.18-.68-.44-.38.67.53.35.37.42v.48l-.52.54-.4.53-.41.82-.53.58-.56.55-.48.25-.71.17-.65.36-.44.07-.39,1.18-.32.89-.07.81.26.41.45.25.58.15.77.27.23.58,0,.88v.71l0,.88v.78l.18.81.65,1.08.58,1,.5.75.8,1.12.33.85v.71l-.27,1-.71.92-.93.62-.86.42-1.2.36-1.19.13-1.09.11-1.12,0,.36,4.57.34,1.65.55,3.53.78.16.69.49.78.57.72.28.79,0,.59-.11.69-.52.58-.37.68.11.38.39.16.65.1.9.48.63.57.16.4.37.08.54,0,.48L353,637l-.15.43-.37.52-.2.16-.38.64-.13.35-.25.26-.42.21-.63.14-.68.12-.71.09-.95.37-.8.46-.65.54-.78.85-.58.89-.34.87-.43,1.1-.43.9-.39.76-.36.63-.37.37-.68.08.58,3,1.38-.22,1,0,1.06.19.9.31,1,.28.46-.18.5-.61h.46l.58.39h.64l.47-.49.64-.78.82-.34.93.16.43.39.47.57.63.47.65,0,.51,0,.65.37.5.78.62.22.26-.12.62-.75.46-.35.79-.06.77-.17.24-.38,0-.54-.23-.41-.67-.88-.43-.65-.34-.74-.28-.87-.74-1-.72-.33-.88-.07-.79-.15-1.05-.76-.16-.54.1-.71.46-.54,1-.18.95,0,1,0,1.12-.12,1.06-.48.16-.4-.08-.72-.16-.8v-.68l.4-.47.91-.19h.51l1.19.06,1.45.06,1.09,0,1.09.14.63.46.4.57.24.78.1.76.18.66.2.79-.11.51-.44.65-.65.74-.38.79-.43.74-.63.75-.23.67,0,.53.26.73.9.55.94.12.74.78,1.16,1.13,1.08,1,.15.14.3.37.58.35.62.14.87.15.76.34.33.45,0,.82-.19.74-.42.7-.78.41-.48.44-.1.28-.44.44-1.1.67-1,.59-1,.85-.56.77-.43.72-.12.56-.11.92,0,1.08v1.11l-.09,1.22v1.28l0,.93-.42.7-.77.72,75.27-40.75,2,15.37,15.93,46.76,7.88,20.32-20,103.48-18.24-20.45-3.74-3.7-5.19-4.92-4.23-4L413,778.32l-2.87-3.19-2.83-3.44-2.57-3.54-3.08-4.3-2.56-4.53-2.56-4.51-2.1-4.9-1.6-3.24-2.16-3.16-2.8-2.22-3.45-1.62-2.91-1.11-2.85-.27-3.17.39-3.23.69-5.27,1.7-3.68,2.17-3.18,2.53-2.39,1.89-2.36,2.72-2.2,2.29-1.78,2.77-2.65,3.95-2.58,3.93-2.7,3.23-2.49,3-2.25,2.81-3.16,3.11-2.75,2.1-4.28,1.85-5.06,1.71-6.23,1.47-5.33,1.15-4.35,1-4.1.82-4.93.76-3.8.71-3.67.4-5.45,1.64-5.19,1.26-3.93.86-3.69.76-3,.37-3.42.2-3.64-.08-4.06-.21-4-.73-4.51-.56-3.46-1-4-1.57-4.68-1.88-3.64-2.32-6-4.47L225.37,777,223,775.17l-2.79-2.25-2-1.64-5.3-4.11-3.22-2.55-2.93-2.52-2.52-2.58-1.9-1.77-2.9-2.86-2.77-3.69-1.46-1.68-1.79-1.28-1.32-.65-1.76-.36-1.95-.05h-2.62l-3.6.2-2.52,0-3.2.19-3.23.16-2.58.6-2.21.74L166,750.21l-2.55,1.45L160,753.42l-2.62.11-3.47-.53-4.28-.18-3.16-.07-4-.22-7.17-.53-2.82.19-3.05.2-3.34,0-3.21-.07-3.43-.24-3.54-.62-2.83-.44-2.45-.3-2.06-.3-1.93-.38-2.08-.44-1.82-.47-1.66-.84-1.23-1.65-.57-1.25L98.39,743,98,741.19l-.36-1.85-.27-1.57-.24-1.41.11-2.61.81-1.91,1.82-2.36,2-1.81,1.9-1.76,1.07-1.23,3.94-3.38,2.89-3,2.54-2.54,2.12-1.75,2.28-1.72,2.64-2.37,1-1.77.37-3.09-.24-2.29-.71-2.45-.85-1.82-1.52-2.62-1.74-2.27-1.9-1.78-1.33-1.53-1.62-1.08-2-1-2-.88-1.91-.61-2.25-.48-2.41-.75-2.08-1.2-1.71-1.84-1-2.07-1-2.54-.85-1.71-1.7-1.19-1.73-.82-2.43,0-2.07.42-1.84.94L84,677.23l-1.56,2.46-1.62,3.88-1,3-.78,4.62L79,694l-.54,3.14L77.77,700l-1.21,2.2-1.51,2-2.51,2-2,1.11-3.23,1.55-3.26.74-2.82.56-3.52.52-3.77.37H51.86l-3.47-.11-3.81-.72-2.89-.42-3.4-.66-3-.68-3.9-1.28-3.54-1.41-2.55-1.36-2.66-1.85-3.09-2.16-2-1.74-2.19-1.84-2.22-2.24-2.16-2.26-2.56-2.51-2.51-2.21L0,682.66l39.19-72.09,16.52-19.35-.78-23.75L53.64,527.7l17.85-34.86,7.3-14.23,7.95-15.53,1-41.18,1.87-74.49.63-25.08.15-5.84.11-4.43,7.93-18.81,7.36-17.44,13.11-31.11,32.63-77.37,7.53-11.41,6.09-9.24h0l8.57-13L199.34,94.9,200.58,93l9.27,6,1.92,1.25,6.93,4.49,21.65,14,7.44,4.82,28.85,18.71,4.3,2.79,2.91,1.88.08.06.62-.64,18.11-18.65-1.44-3.22-5.29-11.75-7-15.58-8.45-18.8L278,69.63l-1.71-6.09L263.35,17.31l-1.05-3.77L264.44.48l40.2,21.85,44.55,24.21,65.48,35.58"/><path class="cls-4" d="M351.69,747.17l-.94-.56-.66-4.42-.13-.81L348.23,735l.23-3.06-.47-2.76-1.53-4.68-6.41-9.74-2-5.59-.36-2.29-.47-2.62-1.91-3.65-8.63-10.73L320.42,687l-10.52-4.44-4.23-2.15-.5-.49L300,671l-2.64-3.85L294,660.88l-1.39-1.75-26.19-48.92v-2.39l-.81-1.56"/><path class="cls-4" d="M165.83,374.91l3.88,3.9.28.27.33.48.75,1.48,1.37,6.08.41,1.15.35,1.08.82,1.52,1.24,2.27,2.93,4.12,2.16,3.83,2.6,4.71,1.31,2.49.21.82,0,.86-.21,2L183.18,416l-1.79,5.84-.7,1.82"/><path class="cls-4" d="M180.69,423.69l-.23,1.49-.25,2.66.31,2.28.32,2.23.89,4.75.82,3.06"/><path class="cls-4" d="M182.55,440.16l.89,4,.72,4"/><path class="cls-4" d="M184.16,448.2v1.06l0,1.77-.19,2.68-.74,5.79-.73,5.11-.17.61-.74,1.84-.34,1.27,0,4,.06,4.23.34,3,.44,4.4"/><path class="cls-4" d="M182.09,484l.21,2,.16,2.65.08,1.88.14,2.07.31,1.85.39,1.8.62,2.39.18,1,.33,2.65.19,3.42v2.44"/><path class="cls-4" d="M184.71,508.14l-.27.41-.12.34-.27,1.72-.66,4-1.34,7.58-.73,3.44-.89,3.87-.91,3.09-1.05,3.65-.83,2.86-.85,3.56-.28.93"/><path class="cls-4" d="M176.51,543.63l-.83,2.7-1,3-.83,2.87-.9,3.37-1.33,3.24-.91,1.74-1.65,3.77-1.4,4-.31,1.07-.21,1.27-.33,2.58-.54,4.24-.48,2.54-.56,3.13-.21,5.17v.17"/><path class="cls-4" d="M165,588.55l-.3,4.27-.25,4.65-.59,9.67-.12,1.08-.2.87-.28.83-.55.85"/><path class="cls-4" d="M162.73,610.77l-.85,1-.74.92-2.58,3.26-5,5.52-1.75,2-1.5,2.4-.72,1.25-1,2-.07.29-.36,3.4L148,636.4l-.8,4.44-.63,4.53-.82,1.75-.48,1.43-.76,3.38-.43,1.85-1,2.07-1,1.79-1.43,1.71-.66.58-2.57,1.94-.91.87-.8,1-3.42,6.6-2.38,4.25-.55,1.21-.58,1.61-1.12,4.36L126,689.84l-.65,1.89-1.13,2.75-.07.65.12.73.18.67.81,2.44,1,1.7.33.92.33,1.27.35,1.26.09.92.06.87v1.57l-.4,1.28-.56,1.29-.74,1.54-.9.88-1.3,1-2,1.41-1.52,1.23-1.23,1.37-1.57,1.8-.9,1.4-.88,1.22-.47.89-1.73,6.08-1.3,3.85-1.16,4.62L109.38,743l-.43,2.17-.36,1.48-.32,1.33"/><path class="cls-4" d="M287.29,12.9l1,2.14.46.77.52.89.42.49.29.29.43.19.71,0,.76,0,.89.07.6.27,1.28.6,1.87,1.13,2.57,1.78,2.31,1.22,1.74,1,.86.62.58.58.46.56.85,1,.68.87.68,1L308.29,30l1.15,1.91.95,1.3.71.89,1,1,1.35,1.54L315,38.13l.67.71"/><path class="cls-4" d="M316.55,39.14l.76-.3,1.55-.45,3.07-1.21,1.36-.21.85-.3.89-.73.93-1,.65-.7"/><path class="cls-4" d="M315.69,38.84l.39.27.47,0"/><path class="cls-4" d="M290.7,42.4l1.81-.11.44-.1.33-.15.12-.11,0-.14,0-.51,0-.23.08-.24.15-.17.67-.23.79-.18h.52l.28-.16.25-.35v-.61l-.22-.9-.33-.55-.2-.36v-.25l.15-.14.23.07L297,38.3l.7,1,.52.57.76.33,1.7.78,3.21,1.68.62.13.64,0h.47l.27,0,.31-.12.32-.38.32-.52,1.49-1.1L310,40l2.2-.43,1.66-.23,1.81-.5"/><path class="cls-4" d="M119.38,339.77l-4.44-2.41-.28-.27-.12-.22,0-.23.89-1.86,2.3-4.46"/><path class="cls-4" d="M130.52,326.85,129.29,328l-.68.51-.81.67-.92.72-.52.46-.7.66-.65.69-.63.67L123.11,334"/><path class="cls-4" d="M130.39,383.25l.55-1.55.31-1.84.63-2.43.51-1.8.22-1,.26-.57.14-.22.13-.11.24-.12.52,0,.42-.12"/><path class="cls-4" d="M122.8,432.73l1.45-3.94,1.39-4,1.39-3,.25-.65.65-1.53.72-2,.27-1.43.15-1.37.14-2.41,0-3.52-.15-1.55-.32-.85-.43-1.23-.18-1.18-.17-1.33-.14-2.06,0-.71-.12-.81-.17-1.28v-2.59l.14-1,.39-1.49.4-1.88.72-2.78.42-1.45L130,385l.4-1.7"/><path class="cls-4" d="M96.07,491.64l1.7-1.91,1.79-2,.94-.73,1.79-2,3.34-4.44,3-4.5,1.07-2.07,1.9-4.22,1.82-3.8,1.35-2.85,2.81-4.38.85-1.74.31-1.11.28-1.37,0-1.51-.24-3.09-.65-3.19-.34-2.33,0-.41,1.56-.58.65-.76.42-1,.48-1.71,1.8-7.2"/><path class="cls-4" d="M182.09,484l-2.14.19-2.23-.15-4.43-.84-2.93-.23-1.87-.05-1,.12h-.55l-.57-.32-.31-.08h-.33l-1.51.41L155,486.27l-.4,0-.15-.22-2-3.72-1.31-1.71-.87-.43-2.37-.16L145.6,480l-1.37-.23-.46-.16,0-.84.07-2.19-.34-.43-.4-.36-.07-.21,0-.32.61-6.63-.4-1.33-.7-1.5-.28-1.06-1-2.74L139.65,459,137,451l-.39-.48h-.2l-1.38.89-.55.1-.31-.13-.73-.76-.55-.86-2.45-5.28-.58-1.85-.48-2.47-.73-2-2.1-2.92-.83-.85-2.92-1.61"/><path class="cls-4" d="M130.39,383.25l-6.24-1.87-.4-.16-.16-.19,0-.25.13-.39.17-.44.26-.31.12-.76-.13-.95-.14-1.48-.31-1.61-.33-.71-.82-.82-1.26-1-1.35-.7-1.36-.51-2.76-.51-2.43-.52-2-.15-1.75-.39-.63-.25-1.05-.48-.52-.41-.28-.24-.19-.29-.13-.41,1-4.11,1-1.74.49-1.1.46-1.89.39-3.26.44-1.57.55-1.72.5-.94,1.38-1.93,1.24-1,1.3-1.88,2.35-3.75"/><path class="cls-4" d="M106.6,311.41l.33-1,.6-1,2.17-2.94"/><path class="cls-4" d="M105,316.44l1.16-3.63.48-1.4"/><path class="cls-4" d="M90.41,415.8l-1,4.08.34.14.83.06h3l.37.14"/><path class="cls-4" d="M94,420.22l1,.07.86.21,1.49.07,1.89.41.8.45.51,1,.42.34.93.24,2,.83,1.69,1.16,4,1.65,1,.55,2.07,1.24,4.19,1.86,1.33.06,4.49,2.41"/><path class="cls-4" d="M94,420.22l-.27,2,.1,1.72-.07,1.85L93,429l-1.2,2.44-.91,1.19-.93,1.19-.66.54-.76.81-1,1.54-.13.26"/><path class="cls-4" d="M123.11,334l-.2.28"/><path class="cls-4" d="M122.91,334.27l-3.53,5.5"/><path class="cls-4" d="M119.38,339.77l-.6,1-1,1.88"/><path class="cls-4" d="M113.68,328.6l-2-.93-.35-.26-2.53-1.59-.31-.31-.09-.14,0-.18.06-.21.08-.18.28-.48,1.18-1.39,1.25-1.4,2.2-2.34"/><path class="cls-4" d="M117.71,330.32l-3.57-1.54-.46-.18"/><path class="cls-4" d="M119.78,332.07l-.43-.42-.78-.78-.86-.55"/><path class="cls-4" d="M122.91,334.27,121,333l-.63-.48-.56-.48"/><path class="cls-4" d="M300.45,112.49l2.34,3.27.16.3.16.45.09.63.05.66,0,.41-.24.42-1.29,1.3-.78.64-.69.48-.34.17-.11.14"/><path class="cls-4" d="M387,195.9l-.25-1.22-7.07-5.39-5.33,5.12-11.17-5-4.29-4.77-5.48-9.42-2.47-4-.58-2.12-.07-6.51-.22-10.1L348.37,149l-2.95-3-4-2.68-6.3-6.84-4.39-5.08L327.64,128l-.46-1.79-1.86-1.33H324l-2.51-1.8-7.17,2.64-7.57,1.76-4.67,2.25"/><path class="cls-4" d="M301.42,125l.43.57.39.51.23.34.13.24,0,.27-.06.51,0,0"/><path class="cls-4" d="M302.35,128.12l-.21.64-.13.39,0,.21.08.31"/><path class="cls-4" d="M302.06,129.67l.05.29-.05.37-.18.32-.23.4-.7,2.22-.54,1.9-.66,2.21-.29,1-.32,1.48-.6,1.22-.5.55-2.39,1.76-.72.41-.77.27-.48.09h-.48l-.59-.13-.45-.21-1.93-1.57-.69-.92"/><path class="cls-4" d="M125.48,336.09l-2.37-2.1"/><path class="cls-4" d="M130.87,340.1l-.64-.35L129,339l-.79-.53-.6-.52-2.15-1.9"/><path class="cls-4" d="M140.17,344.36l-2.25-1.08-.79-.36-1.87-.85-2.9-1.26-1-.5-.45-.21"/><path class="cls-4" d="M162.78,337.67l1-.53"/><path class="cls-4" d="M155.51,340.37l3.58-1.4,3-1,.69-.28"/><path class="cls-4" d="M154.06,341l1.45-.59"/><path class="cls-4" d="M152.52,341.62l1.54-.66"/><path class="cls-4" d="M147.18,343.65l5.34-2"/><path class="cls-4" d="M147.66,346.3l-.48-2.65"/><path class="cls-4" d="M147.48,349l.28-1,.05-.4v-.37l-.14-.86"/><path class="cls-4" d="M147.26,352.47l0-1.48,0-1.23.08-.31.22-.5"/><path class="cls-4" d="M148.65,359.72l-.41-.77-.31-.79-.44-1.94-.11-1,0-.7-.06-1.63v-.41"/><path class="cls-4" d="M160.28,358.35l-.75-.3-1.3-.26-3.1-.38-.68,0-.42.09"/><path class="cls-4" d="M154,357.53l-.42.43-1,1.05"/><path class="cls-4" d="M161.64,359l-1.36-.68"/><path class="cls-4" d="M152.64,359l-.95,1-.55.32"/><path class="cls-4" d="M163.05,359.66l-1.41-.63"/><path class="cls-4" d="M151.14,360.35l-.37.07h-.49l-.61-.19-.63-.32-.39-.2"/><path class="cls-4" d="M152.52,341.62l.41.95.64,2.07"/><path class="cls-4" d="M153.57,344.64l.57.79.29.71.35,1.09.18.86"/><path class="cls-4" d="M155,348.09l.4,1.3.09.31.13.39"/><path class="cls-4" d="M155.58,350.09l.23.63.39.43.3.28"/><path class="cls-4" d="M156.5,351.43l.24.17.95.29.47.2.27.18"/><path class="cls-4" d="M158.43,352.27l.36.38.41.77.56.8.5.38.25.27.32.57.25,1,.23,1.2.33,1.36"/><path class="cls-4" d="M156.76,343.61l.45-.16.76-.16.84-.1"/><path class="cls-4" d="M153.57,344.64l3.19-1"/><path class="cls-4" d="M147.66,346.3l1.66-.34.76-.14.77-.18,1-.31,1.75-.69"/><path class="cls-4" d="M214.74,188.52l5.22,2,2.69.59,5.25,1.51,2.17.31,5.69,1.51"/><path class="cls-4" d="M235.76,194.47l7,2.95.59.48.34.76,1,5.76.72,6.65.15,1.1.26,1.92,1.18,1.42,1.48,1.23,1.59,1.4,1.32,1.33.56.78.63,1,1.27,1.79,1.78,2.47"/><path class="cls-4" d="M255.6,225.51l.75,1.68.23,1.1-.34,1.33-.63,1-1,1.12-.77.63-.43.42-.29.51-.06.7.21,2.43.25,2.17,0,2.09.09,1.65,0,2-.1,2,.2,1.38.65,1.75.47,1.35.26,1.31,0,1.13,0,1.07.26.83.68,1.21,1.34,1.44.36.4.16.36v.67l0,2.73,0,3.27-.33,2.82-.17,1,0,2.39.23,7.2-.07,2,.19,1.17.3.66.41.43,1.09.79,1.92,1.46,1.09.71,1.85,2.36.67,1.23.46,1.27v1.58"/><path class="cls-4" d="M201.4,93.56l-.74.68-2.47,2.4"/><path class="cls-4" d="M183.15,119.46l.43,1,0,1,.32.9.54,1,.7,1.63.08,1.48.33,1.27,1,1.48,1.15,1.92,1.16,1.8.45,1.07.16.86,0,1.68-.21,1.72-.05.66.05.73.11,1,.22,1.22.45,1.73.7,1.76.38.57.24.33.37.31,1.61.75,1.3.57,4.34,2.25,1,.37,2.07.45,2.79,1.34,2.52,1.12.35.45.08.4-.09.54-.51.78-5.91,5.56-.12.23-.05.42,0,.51.19,1.78.06.86-.06.48-.06.26-.19.39-2.31,2.61-.12.22,0,.36.07.28.48.68,4.66,3.6,3.2,3.5,6.21,5.53.79.75.25.33.13.29.33,4.25"/><path class="cls-4" d="M214.74,188.52l.18,4.5-.1.75-.12.75-1.19,4.91-1.11,4.08-.35,1.75L210.12,210,208,214.27l-.24.21-.41.13-1.11-.1-1.83-.62-2-.82-1.55-.48-3.63-.69-2.76-1h-.08l-.08,0-.07,0,0,.05-.74,1.06-.83,1.07-1.05,1.1-1.19,1.06-2.37,2.46-1.84,2.48-1,1.18-.48.82-.38,1.1-.17,1.6-.3,1.1-.7.94-.53.61-1,.93-.5.52-.51.76-.42,1.23-.6,1.32-.16,1.05-.6,1.89-1.56,4.45-2.17,5.94L173,249.82l-1.25,1.77-.66.65-.54.48-1.86,1.05-1.2.67"/><path class="cls-4" d="M167.45,254.44l-2.51,1.75-.66.22-.51.1-.62.11-.67-.06-4.78-.22-1.46.1-.69.11-.47.29-.4.36-.47.6-.39,1.14-.23.94-.09.66,0,.66v.93l.11.83.14,1.06.05,1-.1.41-.08.24-.09.15-.13.15-.28.26-.34.28-.89.82-.76.77-.24.39,0,.21,0,.2v.37l.06.22.09.23.48.79.42.78.08.67-.22.43-.27.39-.61.59L149,275.1l-1.32,1.23-1.55,1.27-.15.16-.11.27-.07.51-.06.43,0,.25-.09.25-.23.49-.3.55-2.37,3.83-.72,1.07-1.32,1.38-.85,1-.91,1.27-1.57,1.82-2.12,2-1,1.23-.23.51-.1.66.1,1.57.33,1.93.61,1.21,1.59,2.35,1.63,1.71,1.21,1.84.85,1.82.89,1.64.55.89.67.92"/><path class="cls-4" d="M142.33,311.16l.94.61,3.32,2,1.13.86.33.35.3.62.16,1,0,1.19-.11,2.32-.07,1.23,0,.23"/><path class="cls-4" d="M148.27,321.59l0,.41-.09.8-.39,1.2-.48,1.3-1,2.53-.4.8-.16.55-.08.58"/><path class="cls-4" d="M145.67,329.76v.11l0,.87-.15.84"/><path class="cls-4" d="M362.7,282.21l-.08,0-.55-.14-.7-.25-1.15-.5-1.1-.49-1.06-.49-.64-.45-.26-.24-.25-.27-.17-.24-.13-.23-.1-.31-.09-.42-.09-.62-.09-.6v-.43l.15-.6.54-1.22"/><path class="cls-4" d="M236.09,333.47l-.74,1.92-.52,1.5"/><path class="cls-4" d="M234.83,336.89l-.47.86-.48,1.06-.2.63-.06.52.1,1.6"/><path class="cls-4" d="M233.72,341.56l.21,1,.43,2.39.07,1.05"/><path class="cls-4" d="M234.43,346l.11,1.35v.43l-.07.53-.46,1.38"/><path class="cls-4" d="M147.48,349l1.41.07,1.19-.07,2.19-.31,1.11-.22,1.58-.33"/><path class="cls-4" d="M179.38,334.33l-2.41-.16-3.58-.35-3.58-.22-.19.07-.14.14-.09.23,0,.31-.11,1.34-.14,1.93"/><path class="cls-4" d="M189.23,335.25l-.68-.07-2.94-.29-3.71-.34-2.42-.22h-.1"/><path class="cls-4" d="M227.81,335.46l-.77-.25h-.64l-1,0-1.41.34-1.68.58-.89.29-3.6,1.36-1.54.44-.9-.14-.74-.29-.48-.25-.46-.32-.36-.23-2.73-.88-2.5-.65-2.4-.62-1.44,0-.95.12-1,.45-2.18,1"/><path class="cls-4" d="M193.37,336.47l-1.85-.66-1.22-.33-1.07-.23"/><path class="cls-4" d="M234.83,336.89l-1.39-.22-1.1-.1-1.2-.15-1-.28-2.3-.68"/><path class="cls-4" d="M200.17,336.46l-2.28,1-.44.08H197l-.32-.07-.38-.05-.62-.16-1.5-.49-.79-.32"/><path class="cls-4" d="M167.45,254.44l5.07.34,3,.31.56.16.29.21.19.33.24.69.21,1.2.36.72.13.19.31.29.4.21.66.5,1.16.89,1.49.86,1.38.88.78.39,1,.37,1.32,1,.8.45.88.67,1.53.91,3,1.77,2,1.29,1.9,1.14.27.25.21.26,2,2.29,1.12,1,1.34,1.2.77.71.31.37,1.1,1.44,1.5,1.64.25.3.21.29,0,.18,0,.21-.26.88-.11.35-.07.57,0,1.7.31,2.22L205,287l-.07,2.55-.2,1.12-.09.43-.33,1.08-.06.35,0,.46,0,.85.08.57.14,1.08.46,1.66.29.81.63.84,1.14,1.3.82.87.8.93.16.27,1.78,4.13.37.7.38.79.29.89.3.88,1,2.43.27,1.05.11.8.09,1.68,0,.42,0,.35.1.42.91,1.27.72,1.07.25.46.12.41v.26l0,.28-.2.26-1.24,1.35-1.79,1.78-3.34,2.6-1.72,1L205,329l-1.89,1.37-.63.34-1.35.75-2,1-.34.17-.24.1-.12.12-.11.11-.07.17,0,.17,1.86,3.21"/><path class="cls-4" d="M269.55,174.37l1.54-.3,3.74-2.92,3.95-1.63,3.16-.93"/><path class="cls-4" d="M235.76,194.47l1-2.17,3.13-2.06,3.13-1.32,2.84-.47,2.66-2.35,2.65-2.45,3.79-1.22,4.08-3.19,3.79-1.79,1.42-1.22,3.48-1.17,1.8-.69"/><path class="cls-4" d="M255.6,225.51l2.88-2.66,3.32-1.55,1.44-.56,3.81-4.41,1.57-2.61,2.19-1.67,4.75-2.17,5.13-2.67,2.31-.62,2.56-.18,2.5-.81,1.75-.93,1.82-3.23.31-1-1.25-1.8-1.43-2.48-2.63-2.24-.87-2.61.06-3,.44-3.23-.49-2.86-1.13-1.36-2.81-.25-2.38-.13-3.12-.37-4.63,1-1.09-.56-.26-1.53-.8-4.67"/><path class="cls-4" d="M142.33,311.16l-.74.51-.86.59-.83.38L139,313l-.91.52-.82.6-.34.3-.15.26-.47,1-.8,1.5-1.46,2.5-.84,1.28-.84,1.54L131.12,325"/><path class="cls-4" d="M220.82,689.78l3,1,3.21,1.07,3.44,1.21,2.45,1,.31.25.21.39,0,.42-.36,1.1-1.17,2.12-1.44,2.5-1.21,2.27-.11.34.05.31.35.21,1.23.27,1.84.21.56.11.44.16.31.38,1.23,2.19.3.43.29.3,2,.75,2.87,1,2.63.64,1.52.41.6.1,1.18-.15,1.09-.07,1-.09.54.08,2.17.65,3.14,1.33"/><path class="cls-4" d="M162.73,610.77l1.63,2.28,0,.45-.59,1-.13.48.17.72,1,1.51,2.35,3.06,1.31,1.16,2.07,1.38,2.75,2.19,8.76,3.4.32.48-.08,4.53-.38,4,.14.86.31.86.48.69.93.48,2.63.44"/><path class="cls-4" d="M431.63,647.45l-1.44-.44-1.92-.52-2.79-.56-3.28-.82-1.35-.48-1.24-.69-1.21-1.13-.37-.49"/><path class="cls-4" d="M389.45,697.58l-.31.52"/><path class="cls-4" d="M389.14,698.1l-1.7,2.57,0,.74.62.87.43,1.26.25.9,0,.88-.24,1-.61,1-1.34,1.1"/><path class="cls-4" d="M274.3,454.65l1.65,2.09,1.48,1.44,1.12,2.17,1,2.58,1.65.9,2.31.7,2.81.45,1.6,1.19,1.74,1.64,2.51,1.72,1.36,1.36.66,2.62.74,3.07L296.1,479l.37,1.83,2.29,8,4.58,6.58,2.93,3.29,1.65,4.56,2.17,3.79.63,1.65-.76,2.53.63,2.4v2.79l-1.53,2.91-3.57,9.61-3.07,8.48.64,5.44.38,4.55.83,1.71"/><path class="cls-4" d="M304.27,549.05l1,2,1,3.55.12,3.28-.25,2.52-.78,2.58-.76,1.31-1,1.26-1.55.62-3.2,1.06-4,.66-4.68.74-5.51,1-.77.43-2.22,1.49-2.7,2.63-2.13,2.4L275,579.08l-1.89,3.4-.29,1.3-.68,1.39-1,.67-1.79,1.68-1.23,1.75-2.61,2.5"/><path class="cls-4" d="M304.27,549.05l1.22-.7,1.39-.87,1.35-.29,1.28.37,1.32.25,1.09-.1,1.17.1.77,0,.95-.43h.41l2.32.55"/><path class="cls-4" d="M207.31,551.25l2.47,5.68.92,4,1.4,6.37.4,1.6,3.92,6,.52,6-.72,5.47"/><path class="cls-4" d="M216.22,586.38l-.44,3.33-2.14,5.42-2.72,7.14-6.09,3.92-7.67,14.33"/><path class="cls-4" d="M107.59,750.18l.68-2.25"/><path class="cls-4" d="M316.55,39.14l-.24.63.23.68.36.65.58.8,1.14,1,1.53,1.48,1.23,1.07.79.81,1.59,3.14"/><path class="cls-4" d="M444.73,647l-2.4-.34h-1.71l-.9,0-.88.14-2.09.51-1.25.18-1.44,0-2.43-.09"/><path class="cls-4" d="M431.63,647.45l-.57.2-.35.38-.55.84-1.09,1.88-1.46,1.77-1.55,1.85L424.43,656l-2.58,1.85L420,658.9,416,661.4l-2.76,1.19-4.07,1.3-1.52.76-1.31,1.13-5.87,5.79-1.85,2.13-1.78,2.1-1.55,1.81-1.52,2-.91,1.1L391.65,682l-1.54,1-1.25.49-1.21.49-1.53,1.15-1.67,1.58-.39.31-.35.16-.37.3-.38.26-.12.41.06.45.36.46,1.38.47,1.33.74,1.09.78,2,.86.89.7.33.88.19,1.28-.28,1.28-.7,1.51"/><path class="cls-4" d="M462,697h0l-.25.08-.29.2-.42.33-.4.3-.16.07-.22,0-2.89,0h-.17l-.37.32-.08.06-.12,0-3.47.52"/><path class="cls-4" d="M162.78,337.67l.09.9.22,2.62.15,1.26"/><path class="cls-4" d="M163.24,342.45l.24,1.79.86,4.31.22.58"/><path class="cls-4" d="M164.56,349.13l.21.74.29.82.11.46.46,2.47.22,1,0,.91"/><path class="cls-4" d="M165.87,355.55l-.47.91-1.2,1.89-1.15,1.31"/><path class="cls-4" d="M143,344.72l.5,1.64"/><path class="cls-4" d="M163.59,349.35l.19,1,.1.57-.08.35-.22.28-.33.35-2.42.43"/><path class="cls-4" d="M151.14,360.35l1.07,1.87.24.78,0,.6-.12.44-.5.72-.57.58-.4.53-1.48,1.9-2,1.66-.73.43-1.59.73-.78.35-.47.33-.15.37,0,.74,2.82,6"/><path class="cls-4" d="M144.41,363.79l1.08-.9,1-1.09,2.2-2.08"/><path class="cls-4" d="M141.8,344.83l-1.63-.47"/><path class="cls-4" d="M147.18,343.65l-1,.22"/><path class="cls-4" d="M146.18,343.87l-.82.26-1,.26-1.37.33"/><path class="cls-4" d="M143,344.72l-1.17.11"/><path class="cls-4" d="M154,357.53l.76-3.65.12-.37.11-.32.06-.13,0-.27,0-.26v-.42l0-.1.06-.1.14-.11.31-.12.35-.12.47-.13"/><path class="cls-4" d="M160.28,358.35l-1.06,4.27-.33,1.23"/><path class="cls-4" d="M165.24,370.71l-4.48.73"/><path class="cls-4" d="M156.65,345.35l.68,3.07"/><path class="cls-4" d="M157.33,348.42l.1,1.46.21.87.26.56.53,1"/><path class="cls-4" d="M159.66,348l-2.33.47"/><path class="cls-4" d="M155.58,350.09l-4,.46"/><path class="cls-4" d="M184.84,348.52l.51-1.43.74-1.21.65-.82.64-.51.33-.31.13-.2.06-.22.17-1,.07-.31.05-.1.06,0,.11,0h1.27"/><path class="cls-4" d="M184.84,348.52l-.19-.9-.58-1.42-.26-.71-.68-1.15-.38-.39-.2-.26"/><path class="cls-4" d="M185,349.62l-.2-1.1"/><path class="cls-4" d="M187.14,351.61l1,.55"/><path class="cls-4" d="M188.11,352.16l.42.17.54.2.53.18.75.37,3.1,2.05,3,2.32.53.58.82,1.08.62.95.16.22"/><path class="cls-4" d="M198.53,360.28l.21,0,.4,0,.3-.05.94-.22,1-.05h.84l2.57.48"/><path class="cls-4" d="M165.87,355.55l.77-.77.51-.58.6-.72.56-1.18.63-2,.41-1.81.53-2,.24-.52.38-.3.4-.1.28,0,.46.11.55.29.43.21,1.06.37.76,0,1.3-.27,1.49-.26.92-.08.8.06.57.15.55.34,1.69,1.49,1.16.56,1.46.68.66.38"/><path class="cls-4" d="M185,349.62l.62.58.51.48,1,.93"/><path class="cls-4" d="M163.24,342.45l-1.27-.1h-1.09l-.83.18-.82.25L159,343l-.14.23"/><path class="cls-4" d="M158.81,343.19v.27l.09.52.76,4"/><path class="cls-4" d="M159.66,348l.33,1.71.09.2.12.1h.3l3.09-.61"/><path class="cls-4" d="M163.59,349.35l1-.22"/><path class="cls-4" d="M152.64,359l-.56-1.71-.05-.62-.31-3.63v-.41l-.07-.15-.08-.08-.1,0-4.2.08"/><path class="cls-4" d="M165.25,374l.58.92"/><path class="cls-4" d="M163.05,359.66l.6,1.83.91,3.12.56,2.9.17,2.61,0,.59"/><path class="cls-4" d="M165.24,370.71l-.17,1.72,0,.84.05.38.17.34"/><path class="cls-4" d="M153.81,335.65l-.18,1.09-.15.69-.08.45-.08.11-.13.13-.15.12,0,.08v.1l.41.93.65,1.61"/><path class="cls-4" d="M125.48,336.09l.79-1,.46-.51.38-.34.22-.19.52-.47.36-.38.11-.11h.22l.21,0,2,1.14,1.09.63"/><path class="cls-4" d="M130.87,340.1l-.89,1.73"/><path class="cls-4" d="M155.51,340.37l1.25,3.24"/><path class="cls-4" d="M134.43,329.92l1.33.73"/><path class="cls-4" d="M90.71,311.67l5.19,1.94"/><path class="cls-4" d="M95.9,313.61l.14,0,3.57,1.17,5.35,1.62"/><path class="cls-4" d="M105,316.44l8.48,2.75"/><path class="cls-4" d="M113.44,319.19l2.9,1.2,3.73,1.32,4.31,1.53"/><path class="cls-4" d="M124.38,323.24l.2.08,2.55,1.07,1.37.77,1.65,1.33"/><path class="cls-4" d="M130.15,326.49l.37.36"/><path class="cls-4" d="M130.52,326.85,132,328.2l.79.63.64.41,1,.68"/><path class="cls-4" d="M147,334.19l-.15.87-.44,1.69-.34,1.84-.16.83-.12.83-.14,1v.39l0,.28.33,1.18.2.73"/><path class="cls-4" d="M182.08,339.08l-.09,2.06,0,.87,0,.87.06.17.14.2.13.18.21.26"/><path class="cls-4" d="M193.37,336.47l-.83,2.15"/><path class="cls-4" d="M189.23,335.25l.63-2.31"/><path class="cls-4" d="M179.38,334.33l.14-1.46.22-1.85"/><path class="cls-4" d="M131.12,325l-.47,1"/><path class="cls-4" d="M130.65,326l-.16.25-.34.27"/><path class="cls-4" d="M148.27,321.59l.31,1.15.33.76.39,1.07.31.55.4.55.07.21,0,.2.26,1.46.15.66.25.73.2.43.32.48.06.38"/><path class="cls-4" d="M145.67,329.76l1.32.39.57.12,1.08.1,1.06.11.81.13.53,0,.12,0,.14-.15.06-.26"/><path class="cls-4" d="M199,344l2.55.29,4.93.57,3.62.47"/><path class="cls-4" d="M210.06,345.3l7.2,1.14,3.34.59"/><path class="cls-4" d="M220.6,347,225,348"/><path class="cls-4" d="M225,348l4.05.74"/><path class="cls-4" d="M229.09,348.69l4.25.91.13,0"/><path class="cls-4" d="M233.47,349.63l.55.1"/><path class="cls-4" d="M234,349.73l3.69.67"/><path class="cls-4" d="M237.71,350.4l2.29.46,2.91.74"/><path class="cls-4" d="M242.91,351.6l1.63.56"/><path class="cls-4" d="M244.54,352.16l4.13,1.69"/><path class="cls-4" d="M248.67,353.85l2.87,1.14"/><path class="cls-4" d="M251.54,355l3,1.34"/><path class="cls-4" d="M276.46,361.18l1.26.3,2.36.3,1.36,0,1.37-.19,2.48-.48,3.15-.48,2.79-.43,1-.07,1.13-.07.64,0,1.65.42,3.11.81,1.81.44,1.58.2,3,.05,3.19-.08,2.46.17,2.39.49,2.93.67,1.08.18h1.27l1.63-.24,1.17-.33,5.86-3.65,1.85-.88,1.9-.76,3.22-.84,2.35-.44,2.82-.37,1.45,0,1.77.06,7.47,1.09,6.08,1.13,1.08.12,1.07,0,1-.14,1.75-.49,1.79-.58"/><path class="cls-4" d="M254.54,356.33l1.82.79,2,.87"/><path class="cls-4" d="M258.33,358l2.87,1,2.28.73"/><path class="cls-4" d="M263.48,359.7l1.33.27"/><path class="cls-4" d="M264.81,360l1.5.24"/><path class="cls-4" d="M266.31,360.21l2.42.07,2.89.11,2,.19"/><path class="cls-4" d="M273.65,360.58l2.11.48"/><path class="cls-4" d="M275.76,361.06l.7.12"/><path class="cls-4" d="M119.78,332.07l1-1.32.62-.77.43-.54.31-.38.43-.33.74-.41.36-.33.28-.3.27-.42.11-.22,0-.14-.08-.24-.21-.23-.26-.21-.15-.17,0-.13.08-.27.32-.46.12-.42,0-.42v-.27l0-.27.24-.58"/><path class="cls-4" d="M95.9,313.61l.37-1.38.41-1.44.41-1.11.75-2.14.21-.14.32,0"/><path class="cls-4" d="M98.37,307.37l8.23,4"/><path class="cls-4" d="M113.68,328.6l-.61,1.17-.25.94-.42,2-.21,1-.2.62-.22.48-.24.7"/><path class="cls-4" d="M165,588.55l1,.37.64.17.65.15.46.16.53.32.65.41.52.41.37.28.17.1.21,0,.5-.13.41-.17.17,0,.18,0,.62.25.18.07h.18l.17-.06.19-.15.92-.71,1.36-.87.77-.48.18-.12.09,0h.1l.15,0,.2.26,1.32,1.73,1,1.21"/><path class="cls-4" d="M275.76,361.06l0,1.51.44,2.93.35,1.2"/><path class="cls-4" d="M266.31,360.21l.46,2.17.19,1.23,0,.61-.23.43-1.1.9"/><path class="cls-4" d="M276.46,361.18l.19-4.6"/><path class="cls-4" d="M274.24,355l-4.54-.54"/><path class="cls-4" d="M274.24,355v-2.79l-.29-.74-.86-1.64"/><path class="cls-4" d="M273.65,360.58l.59-5.63"/><path class="cls-4" d="M151.38,531.62l2.71.33.39,0h.41l.33.12.55.51.79,1,.91.95.78.73.69.5.59.25.4.14.38.17.32.23.48.44,1.28.87.35.17.26.06,1.65.29,2.71.93,2.18,1.08,1.06.71.59.35.6.26,1,.26,3.76,1.67"/><path class="cls-4" d="M198.1,343.86l.86.11"/><path class="cls-4" d="M135.76,330.65l.84.4,1.1.55,1.66.63,2.37.51,4,1.08,1.22.37"/><path class="cls-4" d="M147,334.19l.6.08,1.51.37,2.91.61,1.8.4"/><path class="cls-4" d="M153.81,335.65l1.72.38,1.7.4,1.08.2,1,.17,2.19.18,2.3.16"/><path class="cls-4" d="M163.81,337.14l3.89.39,1.4.09"/><path class="cls-4" d="M169.1,337.62l2.05.28,2.72.27,8.21.91"/><path class="cls-4" d="M182.08,339.08l2.25.21,3.78.42.85.14.66.15,1.83.78,2.73,1.34,2.38,1.19.92.38.62.17"/><path class="cls-4" d="M198.53,360.28l.91,2.12.81,2.05.53,1.17,0,.21v.2l-.16.16-.51.19-.62.08-.9,0-.63,0-.4.16-.41.2L197,367l-.12.26-.29.93-.22.85-.21.68"/><path class="cls-4" d="M210.06,345.3l-.29,2.08-.25,1.19-.23.46-.18.36-.35.32-.64.47-.2.18"/><path class="cls-4" d="M207.92,350.36l-.38.36-.23.4L207,352l-.34,1.58-.55,2.15-.76,3.15-.61,1.66"/><path class="cls-4" d="M204.76,360.5l.69.49,1.39.78,1.41.7,1.9,1.1,1.9.91,1,.35,1.31.23,2.7.54,2.17.37,2,.53,1,.52.59.61.25.45.17.71.2.78.19.4.23.34.27.37.56.42.48.21.49.12,1.59.18,1.93.27,1.41.35,1.79.63,1.17.41"/><path class="cls-4" d="M237.71,350.4,236.52,356l-.4,2-.23,2.14-.2,1.56"/><path class="cls-4" d="M235.69,361.73l-.06.53-.22,1.68-.24.73-.61,1.13-.49,1.2-.29,1.23-.17,1.56.12,1.58v1l-.2.94"/><path class="cls-4" d="M233.53,373.27l-.86,1.29-1.15,2.07-1.33,2.59-.41,1.07-.28.77-.15.52-.11.34v.26l0,.33,0,.4-.09.69-.13.46-.21.53-.21.37-.31.5-.16.25-.28.56-.15.39-.08.35-.17.92-.17.48-.18.38-.84,1.1"/><path class="cls-4" d="M231.44,357.87l1.59-5.74.44-2.5"/><path class="cls-4" d="M232.67,361.19l-.54-1.15-.51-.32-.39-.32-.12-.17V359l.32-1.14"/><path class="cls-4" d="M243.19,360.21l.18-1.13,0-.4v-.84l.27-1.89.17-1.18.75-2.61"/><path class="cls-4" d="M253.36,359.37l.48-1.45.7-1.59"/><path class="cls-4" d="M250.5,363.51l.51.05.27,0,.27-.09.16-.13.21-.3.87-2.27.3-.59.27-.79"/><path class="cls-4" d="M242.73,361.82l2,.45,1.41.36,2.15.51,1.4.26.82.11"/><path class="cls-4" d="M257.4,367l2.61.68"/><path class="cls-4" d="M250.5,363.51l.58.67.71.9.42.33.6.22,1.13.31,1.69.63,1.58.42.19,0"/><path class="cls-4" d="M257.4,367l.06.18v.16l-.11.18-.19.1-.37.31-.23.27,0,.18.1.19.11.14"/><path class="cls-4" d="M258.33,358l1.71-3.57"/><path class="cls-4" d="M254.45,348.48l.88.81.21.25.2.25.19.14"/><path class="cls-4" d="M255.93,349.93l-.08.2-.84,1.79"/><path class="cls-4" d="M243.49,346.49h-.9l-3.34,0-2.12-.23-2.7-.27"/><path class="cls-4" d="M250.47,347.32l-.11,0-1.94-.62-1-.16-1.89,0h-1"/><path class="cls-4" d="M244.51,346.48h-1"/><path class="cls-4" d="M253,347.07l-1.18-.4-.41-.05-.27.05-.18.16-.41.47-.11,0"/><path class="cls-4" d="M254.45,348.48l0-.36-.2-.36-.35-.31-.82-.38"/><path class="cls-4" d="M251.54,355l.81-2.07.24-1,.2-1.32.09-.32.27-.3.36-.28.71-.82.23-.42"/><path class="cls-4" d="M229.09,348.69l-.82,3.84,0,.11v.16l.16.09,1.71.3"/><path class="cls-4" d="M220.6,347,220,349.8l-.11.17-.09.17-.12.76V351l.07.07.89.17.08.06v.08l-.18,1.63v.12l0,.14.38.7,0,.14,0,.15-.3,1.06"/><path class="cls-4" d="M225,348l.74-2.5.15-.6"/><path class="cls-4" d="M207.25,348.13l-.53,1.38,0,.13.09.13,1.14.59"/><path class="cls-4" d="M243.49,346.49l-.12,1.37-.24,1.37-.2.92-.05.29v.13l0,.11.1.22,0,.13,0,.15-.13.42"/><path class="cls-4" d="M224,352l1.49.47.19.17.11.31-.79,2.89V356l.07.1.18.05,3.23.8,3,.93"/><path class="cls-4" d="M238,362l2.34,1.52"/><path class="cls-4" d="M242.73,361.82h-.19l-.48-.11-.59-.21-.32-.25-.19-.11-.2-.05-.17,0h-.1l-.3.09-.5.15-.41.12-.55.21L238,362"/><path class="cls-4" d="M238,362l-2.27-.23"/><path class="cls-4" d="M255.93,349.93l3,.6"/><path class="cls-4" d="M264.81,360l-.37.75-.2.12-.28,0h-.19l-.22-.21-.12-.28.05-.68"/><path class="cls-4" d="M253,347.07l.81-1.44.29-.22.89-.47.11-.14.12-.17,0-.17-.15-1"/><path class="cls-4" d="M248.67,353.85l-.57,1.46-.2.28-.2.2-.12.14-.1.17v.16l0,.24.16.19,1.7.82"/><path class="cls-4" d="M250.44,358.31l2.5.85.42.21"/><path class="cls-4" d="M280.51,78.52l.37-.33.15-.11.2-.06.28.06,1.46.78,2.11,1.08.13.06.22,0h.22l.14-.1.39-.57.43-.58.7-1,.17-.13.18,0,1.23.06"/><path class="cls-4" d="M359,311.25l-.2-1.42-.33-2.28-.18-.92-.08-.45-.12-.42-.22-.36-.42-.4-3.91-3.58-.25-.24-.12-.14-.09-.14-.06-.16v-.22l0-.13.07-.17.09-.15,2-2.42,1.49-2.12.66-1.14.41-.57,1.19-1,3.71-2.6"/><path class="cls-4" d="M250.47,347.32l-.59,1.67"/><path class="cls-4" d="M244.51,346.48l-.22,1.77-.42,2.2"/><path class="cls-4" d="M414.12,90.59l-.07.46-.68,3.12-.48,4.4,0,.78.1.9.5,2.5.24.86"/><path class="cls-4" d="M413.27,116.31l-.14,1.06-.13,1v.73l.08,1.11.61,2"/><path class="cls-4" d="M226.39,340.57l2,.67,1.51.43,1.11,0,2.67-.13"/><path class="cls-4" d="M265.73,293l0,1.06.09,1.26.17.65.39,1,.4,1,.52,1.14.1.45,0,.84-.1,1-.42,2.4-.18,1-.24.52-.21.27-.35.27-.47.24-2.38.83-1,.35-2.55.76-.92.44-.43.28-1.14,1-.6.7-1.33,1.6-.71.68-1.27.86-.77.47-2.13,1.36-1.84,1.13-1.33.89-.75.71-.84.88-.92,1.09-.87,1-1.06,1.06-1.13,1-1,.78-1.68,1.23-.56.47-.24.29-.22.52-.43,1.16-.61,2.21-.7,3.63"/><path class="cls-4" d="M226.39,340.57l.12-.83.17-.52L227,338l.78-2.54"/><path class="cls-4" d="M222.64,341.41l3.2,1,.18,0,.12-.13,0-.23.21-1.47"/><path class="cls-4" d="M175.26,436.66l7.29,3.5"/><path class="cls-4" d="M174.15,425.11l.33,0,6.21-1.4"/><path class="cls-4" d="M166.8,426.16l2.26.54.3,0,.29,0,.39-.19,3.6-1.35.51,0"/><path class="cls-4" d="M178.93,448l1.65.05,1.06-.07,2.52.2"/><path class="cls-4" d="M172.73,422.15l.5.59.15.33.28,1.13.49.91"/><path class="cls-4" d="M265.73,293l1.22.06,1.08,0,.82-.15.53,0,.58.08.53.22.32.23"/><path class="cls-4" d="M196.42,664.51l.55.08.79.19.89.48.89.91.4.64.19,1.55.15.51.93,1.47,1.08,1.5.37.53.11.39-.05.42.05.53-.19.27-.4.59L202,675l-.06.8.11,1.5.27,1.56.48,1.24,1.06,1.39,1.39,1.83,1.15,1.23,1,.83.91.51,1.21.43,1.64.34,1.41.12.82.1,1.26.55,3.17,1.23,3,1.09"/><path class="cls-4" d="M185.23,669.45l1.6-.61,2-1,1.58-.77.5-.3.59-.38.76-.71.43-.49.41-.31.39-.09,1.27-.13,1.67-.11"/><path class="cls-4" d="M154.4,748.81l.59-4,.21-4.08,0-4.32-.34-3.91.1-7.39,0-6.81.24-27.7.13-8.72-.16-8.84,0-5.78.11-.31.33-.13,1.82.25,1.54-.1.4,0,.39.28,1,1.26,2.19,3.44,2.69,3.77.49.41,1,.6,1.38.3,1.33,0,1.21-.25L174,676l1.64-.72,2.12-1.14,4.92-2.9,2.57-1.75"/><path class="cls-4" d="M265.52,591.77,264.05,593l-1.26.58-1,1.09-.93,1.54-1.14,1.49"/><path class="cls-4" d="M259.76,597.68l-8.78-1-6.44-1.61-7.18.47-1.52.1-5.09-2.13-8.51-2.61-3.57-2-1.26-1.34-1.19-1.23"/><path class="cls-4" d="M265.63,606.26l-5.37-8.48-.5-.1"/><path class="cls-4" d="M197.16,620.52,193.63,629l-7.31,11.74"/><path class="cls-4" d="M186.32,640.77l-.24,7.08-2.27,9.91-.07,6,1,3.87.23.88.24.92"/><path class="cls-4" d="M196.76,528.13l7.68,15.76,2.87,7.36"/><path class="cls-4" d="M184.71,508.14l8.89,14,3.16,6"/><path class="cls-4" d="M265.73,292.36V293"/><path class="cls-4" d="M134.92,373.11,135,373l.05-.1,0-.14,0-.09,0-.13-.12-.13-.11-.11-.1-.11-.06-.14v-.13l1.15-1.82,1.76-1.54,1.89-1.2.59-.53,1.37-1.1,1.08-.65,1.91-1.27"/><path class="cls-4" d="M134.32,373.48l.6-.37"/></svg>